#!OML:ASF H:\BreakDance\Project 1\Capture day 1\Session 1\Male.ASF
:FULLY-SPECIFIED
:DEGREES
208
root 13.0022 16.0204 1.44914 -166.255 -93.6002 167.526
lowerback -3.8651 0.316536 1.4431
upperback 3.33757 0.393581 -1.78598
thorax 5.65564 0.280385 -2.63405
lowerneck -3.12299 -0.528091 -0.907212
upperneck 1.59269 -0.74303 2.89377
head 1.02895 -0.339725 1.03261
rclavicle 1.68967e-015 1.59028e-014
rhumerus -32.7403 4.82833 -88.5754
rradius 48.4859
rwrist 5.11585
rhand -32.5016 -32.1408
rfingers 7.12502
rthumb -5.73302 -62.0432
lclavicle 1.68967e-015 1.59028e-014
lhumerus -24.374 -10.9478 83.688
lradius 44.5871
lwrist -3.8198
lhand -28.2311 -29.0107
lfingers 7.12502
lthumb -1.60912 0.962953
rfemur -14.9227 3.60089 14.7474
rtibia 43.5803
rfoot -27.7515 -22.2284
rtoes -3.68702
lfemur -21.801 6.01199 -9.91306
ltibia 45.0677
lfoot -27.9122 11.9353
ltoes -25.7855
209
root 13.0128 16.0196 1.46082 -164.851 -94.1369 166.286
lowerback -3.74389 0.329438 1.82585
upperback 3.27595 0.391436 -1.85153
thorax 5.52608 0.294239 -2.91806
lowerneck -2.73688 -0.547681 -0.545206
upperneck 0.76307 -0.759858 2.61881
head 0.700015 -0.358785 0.882224
rclavicle -1.11816e-014 -1.51076e-014
rhumerus -33.4615 4.93984 -88.7228
rradius 48.5895
rwrist 4.089
rhand -32.2235 -32.3462
rfingers 7.12502
rthumb -5.46455 -62.2557
lclavicle -1.11816e-014 -1.51076e-014
lhumerus -23.9909 -11.8378 83.7756
lradius 43.7207
lwrist -3.14665
lhand -27.3776 -28.809
lfingers 7.12502
lthumb -0.784797 1.16932
rfemur -15.0032 3.23961 14.9073
rtibia 43.5067
rfoot -27.711 -22.3127
rtoes -3.76679
lfemur -22.4632 6.14618 -9.75988
ltibia 45.5216
lfoot -27.674 11.3698
ltoes -25.6444
210
root 13.0234 16.0189 1.47441 -163.651 -94.6688 165.241
lowerback -3.63029 0.324922 2.17703
upperback 3.24481 0.367389 -1.88779
thorax 5.43094 0.295456 -3.15589
lowerneck -2.49167 -0.538553 -0.251833
upperneck 0.00521014 -0.739683 2.39529
head 0.421694 -0.358157 0.762757
rclavicle 1.49089e-015 4.77083e-015
rhumerus -34.1797 5.20234 -88.8746
rradius 48.7071
rwrist 3.0275
rhand -31.8594 -32.4999
rfingers 7.12502
rthumb -5.11301 -62.4182
lclavicle 1.49089e-015 4.77083e-015
lhumerus -23.5851 -12.6861 83.8864
lradius 42.936
lwrist -2.54127
lhand -26.2587 -28.3579
lfingers 7.12502
lthumb 0.2959 1.62161
rfemur -15.0794 2.80864 15.0559
rtibia 43.4279
rfoot -27.5741 -22.3955
rtoes -4.16777
lfemur -23.1223 6.24716 -9.6111
ltibia 45.9975
lfoot -27.4366 10.83
ltoes -25.4324
211
root 13.0339 16.018 1.48979 -162.57 -95.1774 164.298
lowerback -3.51538 0.297631 2.47747
upperback 3.24036 0.314771 -1.88286
thorax 5.3598 0.279913 -3.32455
lowerneck -2.37282 -0.48949 -0.0850099
upperneck -0.66949 -0.667052 2.26454
head 0.193426 -0.329869 0.695097
rclavicle -1.04362e-014 1.03368e-014
rhumerus -34.8856 5.63976 -89.0246
rradius 48.8161
rwrist 1.95525
rhand -31.3563 -32.6511
rfingers 7.12502
rthumb -4.62716 -62.5805
lclavicle -1.04362e-014 1.03368e-014
lhumerus -23.1822 -13.4567 84.0303
lradius 42.2564
lwrist -2.03786
lhand -24.9321 -27.6883
lfingers 7.12502
lthumb 1.57719 2.28563
rfemur -15.1536 2.32542 15.192
rtibia 43.3539
rfoot -27.3452 -22.4666
rtoes -4.84066
lfemur -23.7569 6.33077 -9.46689
ltibia 46.4785
lfoot -27.2051 10.3127
ltoes -25.1613
212
root 13.0443 16.0169 1.50676 -161.662 -95.6504 163.503
lowerback -3.3943 0.252093 2.70638
upperback 3.26977 0.240456 -1.83582
thorax 5.31745 0.250561 -3.4106
lowerneck -2.36634 -0.412436 -0.0648076
upperneck -1.27601 -0.556942 2.23548
head 0.00665308 -0.281399 0.683882
rclavicle 1.15295e-014 0
rhumerus -35.5573 6.23353 -89.1614
rradius 48.8959
rwrist 0.887032
rhand -30.7007 -32.7602
rfingers 7.12502
rthumb -3.99411 -62.7025
lclavicle 1.15295e-014 0
lhumerus -22.7977 -14.1525 84.2117
lradius 41.7114
lwrist -1.66411
lhand -23.4675 -26.8652
lfingers 7.12502
lthumb 2.99165 3.09359
rfemur -15.2192 1.83318 15.3094
rtibia 43.2933
rfoot -27.0666 -22.5157
rtoes -5.60165
lfemur -24.3488 6.41286 -9.33757
ltibia 46.9488
lfoot -26.9687 9.81422
ltoes -24.8341
213
root 13.0543 16.0159 1.52493 -161.024 -96.0759 162.955
lowerback -3.26523 0.186387 2.82547
upperback 3.33545 0.143238 -1.73794
thorax 5.30509 0.205325 -3.38323
lowerneck -2.44174 -0.317446 -0.183985
upperneck -1.85988 -0.42148 2.26539
head -0.15924 -0.219138 0.714326
rclavicle -1.45113e-014 2.8625e-014
rhumerus -36.1783 6.99255 -89.2638
rradius 48.9322
rwrist -0.161456
rhand -29.904 -32.8058
rfingers 7.12502
rthumb -3.22473 -62.7612
lclavicle -1.45113e-014 2.8625e-014
lhumerus -22.4391 -14.7376 84.4442
lradius 41.3001
lwrist -1.45893
lhand -21.9118 -25.9759
lfingers 7.12502
lthumb 4.49395 3.95647
rfemur -15.2758 1.38472 15.3957
rtibia 43.2511
rfoot -26.7969 -22.538
rtoes -6.24121
lfemur -24.8947 6.5 -9.24178
ltibia 47.3971
lfoot -26.7112 9.33946
ltoes -24.4478
214
root 13.0637 16.0157 1.54407 -160.76 -96.4474 162.76
lowerback -3.11995 0.137742 2.87557
upperback 3.39941 0.0736843 -1.6531
thorax 5.28345 0.171072 -3.32808
lowerneck -2.47047 -0.244288 -0.334664
upperneck -2.46736 -0.314267 2.34244
head -0.340015 -0.171378 0.764937
rclavicle -4.17448e-015 7.95139e-015
rhumerus -36.8268 7.73827 -89.3723
rradius 48.9237
rwrist -1.13503
rhand -28.9782 -32.7821
rfingers 7.12502
rthumb -2.33069 -62.7491
lclavicle -4.17448e-015 7.95139e-015
lhumerus -22.1552 -15.3799 84.6949
lradius 41.0055
lwrist -1.39545
lhand -20.2816 -25.0829
lfingers 7.12502
lthumb 6.06791 4.81017
rfemur -15.3231 1.00774 15.4333
rtibia 43.2281
rfoot -26.5657 -22.5441
rtoes -6.68191
lfemur -25.3954 6.59827 -9.20051
ltibia 47.8188
lfoot -26.4215 8.89184
ltoes -24.0545
215
root 13.0723 16.0163 1.56418 -160.952 -96.7608 163.004
lowerback -2.95815 0.134926 2.88896
upperback 3.43934 0.0711268 -1.63683
thorax 5.23267 0.169136 -3.31841
lowerneck -2.40262 -0.222025 -0.427152
upperneck -3.09271 -0.275219 2.46476
head -0.542293 -0.159298 0.820485
rclavicle -1.09332e-015 1.27222e-014
rhumerus -37.5435 8.32467 -89.5255
rradius 48.8614
rwrist -1.98603
rhand -28.045 -32.5697
rfingers 7.12502
rthumb -1.42939 -62.5447
lclavicle -1.09332e-015 1.27222e-014
lhumerus -21.9567 -16.2201 84.9279
lradius 40.7978
lwrist -1.41642
lhand -18.5793 -24.2252
lfingers 7.12502
lthumb 7.71122 5.61423
rfemur -15.3605 0.708436 15.4027
rtibia 43.221
rfoot -26.3838 -22.544
rtoes -6.92863
lfemur -25.8511 6.70927 -9.23221
ltibia 48.2169
lfoot -26.0969 8.47531
ltoes -23.6879
216
root 13.0801 16.018 1.58552 -161.529 -97.0142 163.623
lowerback -2.78841 0.170377 2.86551
upperback 3.45977 0.124964 -1.68922
thorax 5.16156 0.19451 -3.35539
lowerneck -2.27789 -0.238116 -0.437704
upperneck -3.71131 -0.288042 2.60374
head -0.752659 -0.175081 0.868408
rclavicle -8.84592e-015 5.56597e-015
rhumerus -38.292 8.76061 -89.7276
rradius 48.7262
rwrist -2.70182
rhand -27.0284 -32.3127
rfingers 7.12502
rthumb -0.447488 -62.292
lclavicle -8.84592e-015 5.56597e-015
lhumerus -21.8136 -17.2438 85.1322
lradius 40.6502
lwrist -1.47464
lhand -16.8073 -23.4354
lfingers 7.12502
lthumb 9.42124 6.33407
rfemur -15.3942 0.457842 15.2993
rtibia 43.2248
rfoot -26.2272 -22.5277
rtoes -7.06017
lfemur -26.2677 6.83143 -9.33506
ltibia 48.5996
lfoot -25.7435 8.09153
ltoes -23.3744
